<?xml version="1.0" standalone="no"?>
<!DOCTYPE svg PUBLIC "-//W3C//DTD SVG 20010904//EN"
 "http://www.w3.org/TR/2001/REC-SVG-20010904/DTD/svg10.dtd">
<svg version="1.0" xmlns="http://www.w3.org/2000/svg"
 width="1280.000000pt" height="1280.000000pt" viewBox="0 0 1280.000000 1280.000000"
 preserveAspectRatio="xMidYMid meet">
<metadata>
Created by potrace 1.15, written by Peter Selinger 2001-2017
</metadata>
<g transform="translate(0.000000,1280.000000) scale(0.100000,-0.100000)"
fill="#000000" stroke="none">
<path d="M6296 12358 c-27 -42 -71 -227 -212 -896 -75 -359 -84 -418 -62 -440
8 -8 52 -12 130 -12 l118 0 0 -73 0 -73 -300 -183 c-165 -101 -300 -185 -300
-187 0 -2 10 0 23 5 12 5 143 57 291 115 148 58 273 106 278 106 4 0 8 -1938
7 -4307 l0 -4308 -260 -218 -259 -218 0 -300 c0 -164 3 -299 8 -299 4 0 119
95 255 210 137 116 250 210 253 210 19 0 -28 -44 -238 -221 -133 -112 -250
-212 -260 -221 -16 -16 -18 -40 -18 -238 0 -121 3 -220 8 -220 4 0 119 95 255
210 137 116 250 210 253 210 2 0 4 -8 4 -19 0 -12 -84 -90 -243 -224 -134
-112 -251 -212 -260 -222 -17 -17 -24 -95 -9 -95 5 0 130 102 278 228 149 125
277 233 285 239 13 10 60 -25 291 -220 151 -127 282 -238 291 -246 16 -12 17
-1 17 162 l0 175 -260 218 c-256 216 -259 219 -260 258 0 35 1 37 18 25 13
-11 406 -340 485 -407 16 -14 17 -5 17 186 l0 201 -259 218 -260 218 0 53 c-1
30 3 52 7 50 4 -1 117 -95 251 -208 133 -113 246 -206 252 -208 5 -2 9 54 9
137 l0 140 -259 218 -259 218 -1 4308 c-1 2616 3 4307 8 4307 8 0 496 -189
569 -220 12 -5 22 -8 22 -6 0 3 -135 87 -300 188 l-300 183 0 73 0 72 118 0
c78 0 122 4 130 12 7 7 12 29 12 49 0 53 -201 1005 -251 1189 -25 93 -42 120
-74 120 -14 0 -31 -9 -39 -22z"/>
</g>
</svg>
